<?xml version="1.0" encoding="UTF-8"?>
<svg id="Layer_1" data-name="Layer 1" xmlns="http://www.w3.org/2000/svg" version="1.1" viewBox="0 0 800 800">
  <defs>
    <style>
      .cls-1 {
        fill: #367b92;
      }

      .cls-1, .cls-2 {
        fill-rule: evenodd;
        stroke-width: 0px;
      }

      .cls-2 {
        fill: #f59432;
      }
    </style>
  </defs>
  <path class="cls-2" d="M323.7,461c3.6-.5,7.2-.8,10.8-.9,1.8-.2,3.7,0,5.5,0-.8.3-1.6.6-2.4.9-18.9,7.7-36,20.1-57.1,20.6-.9,0-1,1.4-.2,1.5,16.9,2.5,35.1-8.2,49.7-15.3,10-4.8,20.2-8.4,30.7-10.7-4.7,2.7-9.1,6.4-12.9,9.5-8.2,6.5-16.2,14-23.2,21.7-.4.6.2,1.4.8.9,7.2-5.5,13.4-12.1,20.1-17.9,7.5-6.6,15.7-10.7,23.8-15.9,8.6-1.3,17.3-1.8,26.1-1.4-9.7,7.2-17.6,17-27.4,23.9-11.5,8-25.6,18.1-31.2,31.6-3.1-5.4-8.3-8.3-15.9-6.7-8.5,1.8-17.9,8.6-23.3,16.7-1.3-4.9-3.3-9.5-7.1-12.9-5.4-4.9-12.8-3-18.9-.2-5.8-11.8-22.7-7.4-35.6-4.2,8.4-5,17.1-12.7,14.2-20.1,5.1-3.7,10.3-7.4,15.2-11.4,3.1-2.5,10.3-7.7,11.2-12.7,2.2-.8,3-4.4.4-5.7-9.3-4.2-21.7-6.5-32-7.4-9.7-.8-19.6,0-29.3-.7,6.7-4.9,10.4-12.9,6.6-21.5-3.9-8.7-16.1-16.6-26.2-15.3,5.2-12.2-4.3-26.6-14.7-36,12.5.6,29.3-2.2,30.1-12.5,7.5,2.7,16.2,3.2,23.5.7,4.5-1.6,6.1-5.5,6.6-9.8,3.2,3.8,6.4,7.5,10.5,10.3,6.4,4.6,13.4,8,20.8,10.6,13.5,4.5,28.5,7.8,42.7,8,3.4,0,3.2-5,0-5.1h0c-6-5.7-9.8-12.6-13.8-19.8-3.7-6.6-7.8-12.4-12.6-18.2-7.6-9.1-16.4-18-27-23.6,5.4-1.7,10.4-4.4,14.1-9,5.5-6.6,4-14.7,0-21.5,7.1-2.9,8.4-15.5,8.1-23.4-.2-4.4-.5-9.1-1.1-13.8,2.2,2.8,4.4,5.8,6.9,8.4,4.6,5.1,12.9,10.8,19.8,9,4.1,6.5,10.5,11.5,18.8,9.8,5.7-1.1,10.5-4.2,14.4-8.2,0,11.9,3.8,23.9,8.2,34.9,2.8,7,6,13.4,10.2,19.7,4.4,6.8,8.9,13.5,10.9,21.4h0c-1.4,3,3,5.5,4.5,2.4,6.4-12.6,10.7-27.4,12.9-41.5,1.2-7.7,1.5-15.5.5-23.4-.7-4.9-2.4-9.4-4.1-14.1,4,1.7,8.2,2.1,11.7-1.2,5.8-5.2,9.4-13.1,10.5-21,9.5,4.2,19.8-9.2,25.2-20.7,3.4,13.5,11.7,28.8,24.9,29.9-5.8,8.3-4.6,22.8,1.2,30.3,5.8,7.4,14.6,7.8,22.1,4.3-4.1,8.9-9.2,17.3-13.1,26.2-4.1,9.4-7.9,21.4-8.6,31.7,0,2.8,3.4,3.8,5.3,2.3,4.8,1.4,12.8-2.4,16.4-4,5.9-2.5,11.5-5.3,17.3-8.1,5.1,6,16.1,2,24.4-3.1-8.9,10-20.8,22.7-13.1,33.4-5.4,4.1-10.5,9.7-8.7,16.8,1.2,4.9,4.4,8.9,8.1,12.4-9.7.9-20.1,6-25.7,12.7-5,5.9-4.8,12-1.6,17.2-14.6-1.3-30,6.4-42.5,12.7-10.1,5.2-21.6,7.7-32.1,12.4,3.2-7.5,7-13.8,12.7-20,6.4-7,13.9-12.9,21.1-19,1.8-1.5,3.6-3,5.3-4.6,3.6-2.1,6.8-4.1,10.7-5.6,3.2-1.3,5.9-2.8,8.4-5.2,1.1-1.2-.7-2.7-1.8-1.8-2.1,1.8-5,2.9-7.9,4.1,3.3-3.3,6.6-6.7,9.6-10.3,7.3-8.5,11.1-19.3,19-27.5,1-1-.6-2.5-1.6-1.5-8.5,7.5-12.4,18.4-19.4,27.1-7.4,9.1-16.8,17.1-25.8,24.5-10.9,9-26.4,20.1-32.2,34.3-1.5-13.4.6-27.1,3.8-40.5.2,0,.5-.2.6-.6,4.1-8.2,8.3-13.7,15.7-19.2,5.2-4.1,11.2-8.4,14.9-13.9v-.2c-3.1.4-4.2,1.4-6.2,3.8-3.6,4.2-8.9,7-13.2,10.3-3,2.3-6.1,5-8.6,8.1,2.8-10.2,6-20.2,8.6-29.9,4.1-15.7,5.3-31.5,7.5-47.4,1-7.5,3.1-14.9,4-22.4.9-7.1.9-14.8,4.1-21.4.4-.8-.7-1.4-1.1-.7-3,4.9-4.6,9.9-5.3,15.7-.9,8.7-2.9,17-4.4,25.7v1.1c0-.2-.2-.5-.2-.6-1.1-3.9-3.2-7.5-5.7-10.6-.7-.9-2.2,0-1.5.9,1.8,2.9,3.4,5.9,4.5,9.1,1.1,3.4.8,6.7,1.4,10-1.9,13.3-3.4,26.6-6.6,39.8-3.8,15.5-8.8,30.7-12.2,46.4-2.7,12.3-5.9,28.6-2.8,41.6-10.3-11.7-12.9-26.9-17.6-41.4-5.1-15.7-14.2-30.5-23.4-44-5.1-7.6-11-14.5-17-21.3-.5-.9-.9-1.7-1.4-2.7-1.9-3.7-3.2-7.7-4.4-11.8-2.4-7.8-3.5-15.9-3.6-24.1,0-.9-1.4-1-1.5-.2-1.7,7.8.7,15.5,2.3,23.1.4,2.1,1,4.9,1.9,7.8-2.7-3.3-5.4-6.6-8-10.1-10.7-14.5-17.6-31.7-28.6-45.8-.7-.9-1.9,0-1.4.8,7.6,15.9,17.4,32,27.4,46.5,10.1,14.6,22.4,27.3,32.3,42.1,5.3,7.9,10.2,16.3,14.4,24.9-9.5-11.1-24.8-19.7-37.8-24.4-.6-.3-.9.8-.4,1,6.8,3.9,13.8,7.3,20.2,11.7,8,5.5,14.1,12.3,20.5,19.3.4.3.8.4,1,.3,2.1,4.7,3.9,9.5,5.3,14.4,3.1,10.3,5.8,22,12.1,31-12.9-8.3-27.2-14.2-41.9-19,0-.3,0-.5-.3-.7-8.7-9-16.8-17.5-29.1-21-.3,0-.5.3-.3.5,5.1,4.2,11.4,6.5,16.3,11,2.7,2.5,5,5.9,7.9,8.4-10.9-3.3-22-6-32.9-8.7-31.8-7.7-63.4-15.5-93.2-29.3-.9-.4-1.6.8-.8,1.3,22.9,12.7,48.5,19.8,73.8,26.3-7.5,1-15.1,3.5-22.1,4.2-1.2,0-1.2,2,0,1.9,5.3-.5,10.6-1.2,15.8-2.3,4.6-.8,9.3-1.1,13.9-1.9,1.7.4,3.4.8,5.1,1.2,31.9,8.2,65.4,15.6,92.4,35.4,0,0,0,0-.2,0-17.4-3.3-37.3.8-54.4,6.9-3.2-1.1-7.4-.4-10.7,0-3.8.3-7.3.8-10.9,1.8-.6.1-.5,1.1.2,1.1h0l-.6.3ZM320.4,492.8c-1.7.9-.2,3.5,1.5,2.5,1.6-.9,0-3.5-1.5-2.5h0ZM269.2,419.7c.4-.6,0-1.5-.8-1.4h-.3c-.8,0-1.4.9-.9,1.7.5.8,1.5.7,2,0v-.2h0ZM316.6,399.5c.5.8,1.4.8,2.1.2,0,0,.2,0,.3-.2.9-.8,0-2.5-1.3-2.1h-.3c-.8.4-1.2,1.1-.8,2h0ZM468.1,387.9c-1.5.9,0,3.1,1.3,2.3,1.5-.8,0-3.2-1.3-2.3h0ZM442.6,363.4c-1.5.9,0,3.3,1.4,2.4,1.5-.8,0-3.3-1.4-2.4h0ZM332.2,366.1c1.8-1.1,0-4.1-1.8-2.9-1.8,1.1,0,4,1.8,2.9h0ZM334.3,295.4c-1.1.6,0,2.3.9,1.6,1.1-.7,0-2.3-.9-1.6h0Z"/>
  <path class="cls-1" d="M523.3,329.6c-8.3,5.1-19.3,9.1-24.4,3.1-5.8,2.8-11.3,5.7-17.3,8.1-3.6,1.6-11.6,5.4-16.4,4-1.9,1.5-5.4.6-5.3-2.3.7-10.3,4.4-22.3,8.6-31.7,3.9-9,9.1-17.4,13.1-26.2-7.5,3.5-16.3,3-22.1-4.3-5.8-7.5-7.1-22-1.2-30.3-13.2-1.1-21.5-16.4-24.9-29.9-5.4,11.4-15.7,24.9-25.2,20.7-1,7.9-4.7,15.8-10.5,21-3.5,3.3-7.7,2.9-11.7,1.2,1.8,4.6,3.5,9.1,4.1,14.1,1,7.9.8,15.7-.5,23.4-2.3,14.1-6.5,28.9-12.9,41.5-1.5,3-5.9.6-4.5-2.4h0c-2.1-8-6.5-14.7-10.9-21.5-4.1-6.3-7.4-12.7-10.2-19.7-4.4-11-8.2-23-8.2-34.9-4,4-8.8,7.1-14.4,8.2-8.3,1.7-14.7-3.3-18.8-9.8-6.9,1.8-15.2-3.9-19.8-9-2.5-2.6-4.7-5.6-6.9-8.4.7,4.6.9,9.3,1.1,13.8.3,7.9-1,20.5-8.1,23.4,4,6.8,5.5,14.9,0,21.5-3.7,4.5-8.7,7.3-14.1,9,10.6,5.6,19.3,14.4,27,23.6,4.8,5.8,9,11.6,12.6,18.2,4,7.2,7.7,14.1,13.8,19.8h0c3.2,0,3.4,5.2,0,5.1-14.2-.2-29.2-3.5-42.7-8s-14.4-5.9-20.8-10.6c-4.1-2.8-7.3-6.5-10.5-10.3-.5,4.3-2.1,8.2-6.6,9.8-7.3,2.5-16,2.1-23.5-.7-.8,10.4-17.5,13.1-30.1,12.5,10.4,9.4,19.9,23.9,14.7,36,10.1-1.3,22.3,6.6,26.2,15.3,3.8,8.6,0,16.6-6.6,21.5,9.8.7,19.6,0,29.4.7,10.2.8,22.5,3.1,31.9,7.4,2.6,1.2,1.8,4.8-.4,5.7-.9,5-8.1,10.3-11.2,12.7-4.9,4.1-10.1,7.7-15.2,11.4,2.8,7.4-5.8,15.1-14.2,20.1,12.9-3.2,29.8-7.6,35.6,4.2,6-2.8,13.5-4.7,18.9.2,3.8,3.4,5.8,8,7.1,12.9,5.4-8.1,14.8-14.9,23.3-16.7,7.6-1.6,12.8,1.3,15.9,6.7,5.7-13.5,19.7-23.6,31.2-31.6,9.8-6.9,17.7-16.7,27.4-23.9-8.9-.4-17.5,0-26.1,1.4-8.1,5.2-16.3,9.3-23.8,15.9-6.7,5.8-12.9,12.4-20.1,17.9-.6.5-1.1-.4-.8-.9,7-7.7,15-15.2,23.2-21.7,3.9-3.1,8.2-6.8,12.9-9.5-10.6,2.4-20.7,5.9-30.7,10.7-14.6,7.1-32.8,17.8-49.7,15.3-.8,0-.7-1.4.2-1.5,21-.6,38.2-12.9,57.1-20.6.8-.4,1.6-.7,2.5-.9-1.9,0-3.8-.3-5.6,0-3.6.2-7.2.5-10.8.9-.7,0-.8-1,0-1.1,3.6-.9,7.1-1.5,10.8-1.8,3.3-.3,7.5-1,10.7,0,17.1-6.1,37-10.2,54.4-6.9,0,0,0,0,.2,0-27-19.8-60.5-27.2-92.4-35.4-1.7-.4-3.4-.8-5.1-1.2-4.5.8-9.2,1-13.9,1.9-5.2,1-10.5,1.8-15.8,2.3-1.2,0-1.2-1.8,0-1.9,7-.8,14.6-3.2,22.1-4.2-25.4-6.5-50.9-13.6-73.8-26.3-.8-.5-.2-1.7.8-1.3,29.8,13.9,61.4,21.6,93.2,29.3,10.9,2.6,22,5.4,32.9,8.7-2.9-2.5-5.2-5.8-7.9-8.4-4.9-4.5-11.2-6.8-16.3-11-.2-.2,0-.6.3-.5,12.4,3.5,20.5,12.1,29.1,21,.2.2.3.4.3.7,14.7,4.7,29,10.7,41.9,19-6.2-9.1-9-20.7-12.1-31-1.4-4.9-3.2-9.7-5.3-14.4-.3,0-.7,0-1-.3-6.4-7.1-12.4-13.9-20.5-19.3-6.4-4.4-13.4-7.8-20.2-11.7-.6-.3-.2-1.3.4-1,13,4.7,28.3,13.3,37.8,24.4-4.2-8.6-9.1-17-14.4-24.9-9.9-14.8-22.3-27.4-32.3-42.1-10.1-14.5-19.8-30.6-27.4-46.5-.5-.9.8-1.7,1.4-.8,10.9,14.1,17.9,31.3,28.6,45.8,2.6,3.5,5.3,6.8,8,10.1-.8-2.9-1.5-5.8-1.9-7.8-1.6-7.6-4-15.3-2.3-23.1,0-.9,1.5-.8,1.5.2,0,8.2,1.2,16.3,3.6,24.1,1.2,4.1,2.5,8.1,4.4,11.8.5,1,.9,1.8,1.4,2.7,5.9,6.8,11.9,13.7,17,21.3,9.1,13.6,18.3,28.4,23.4,44,4.7,14.5,7.4,29.7,17.6,41.4-3.1-13,0-29.3,2.8-41.6,3.4-15.7,8.4-30.9,12.2-46.4,3.2-13.2,4.7-26.5,6.6-39.8-.7-3.3-.3-6.6-1.4-10-1.1-3.2-2.7-6.2-4.5-9.1-.7-1,.8-1.9,1.5-.9,2.4,3.1,4.5,6.7,5.7,10.6,0,0,0,.4.2.6v-1.1c1.5-8.7,3.5-17,4.4-25.7.7-5.8,2.3-10.8,5.3-15.7.5-.8,1.5,0,1.1.7-3.2,6.6-3.2,14.3-4.1,21.4-.8,7.5-2.9,14.9-4,22.4-2.3,15.9-3.5,31.8-7.5,47.4-2.5,9.7-5.8,19.7-8.6,29.9,2.5-3.1,5.6-5.8,8.6-8.1,4.3-3.3,9.6-6,13.2-10.3,2-2.4,3.1-3.4,6.2-3.8v.2c-3.7,5.5-9.7,9.8-14.9,13.9-7.4,5.6-11.6,11-15.7,19.2,0,.4-.4.5-.6.6-3.2,13.5-5.3,27.2-3.8,40.5,5.8-14.2,21.2-25.4,32.2-34.3,9.1-7.5,18.5-15.4,25.8-24.5,7-8.7,10.9-19.5,19.4-27.1,1-.9,2.6.5,1.6,1.5-7.8,8.2-11.7,19.1-19,27.5-3,3.6-6.3,7-9.7,10.3,3-1.2,5.9-2.4,8-4.1,1.1-.9,2.9.6,1.8,1.8-2.5,2.4-5.2,3.9-8.4,5.2-3.9,1.5-7.1,3.5-10.7,5.6-1.7,1.6-3.5,3.1-5.3,4.6-7.3,6.1-14.7,12.1-21.1,19-5.8,6.2-9.5,12.5-12.7,20,10.5-4.6,22-7.2,32.1-12.4,12.5-6.3,27.9-14,42.5-12.7-3.2-5.2-3.4-11.2,1.6-17.2,5.6-6.7,15.9-11.9,25.7-12.7-3.7-3.5-6.9-7.5-8.1-12.4-1.8-7.1,3.3-12.7,8.7-16.8-7.7-10.7,4.2-23.4,13.1-33.4h0l.5-.2ZM405.5,456.7c-.4.2-.7.5-.9.8-.4,0-.7.3-1,.4,12.5,4.1,29.7,68.7,29.5,81.6,4.8-3.5,9.7-7.4,7.5-13.6-4.9-14.7-25.1-68-35.1-69.1h0ZM532.7,322.4v.8c-2,11.3-26.5,26.1-15.8,38,1.3,1.4,1.4,4-.6,5-5.6,2.9-12,7.5-8.3,14.5,2.8,5.4,8.2,9.3,13,12.8,2.9,2.2-.7,6.1-3.6,4.8-9.7-4.2-19.8,1.6-27.4,7.7-7.7,6.2-4.5,13.2,2.1,18.6,2.5,2.1-.6,5.4-3.2,4.3-15.6-6.5-34,4.1-47.5,11.2-9.1,4.8-19.1,7.6-28.5,12,8.8,4,31.6,64.6,33.5,72,3.1,12.2-6.4,15.7-14.2,22.5-2.1,1.9-4.8.2-4.5-2.5,1.5-12.3-14.1-81.3-29.7-83.4-.3.2-.6.4-.8.6-8.7,6.5-16.2,14.3-25.1,20.4-12.6,8.7-30.6,20-32.3,36.8-.3,2.8-4.7,4.1-5.4.8-1.5-8.3-6.2-14.4-15.4-10.5-9,3.8-18.9,9.9-19.7,20.7-.2,3.1-5.3,4.4-5.8.8-.8-5.9-1.8-12.5-5.3-17.5-4.4-6.5-11.5-2.9-16.8.6-1.8,1.2-4,0-4.6-1.9-5.5-15-30.1-.3-41-4-.2,0-.4-.2-.6-.4-1.9.2-3.2-2.4-1.7-3.7,3.2-3.1,24.6-14.5,19.7-19.8-1.5-1.7-1.2-4.1.7-5.4,6-4.3,12.4-8.5,18.1-13.4,2.9-2.5,5.8-5.1,8-8.2h0c-10.6-3.1-20.7-6-32-6.5-11-.4-22.2,0-33.2-1.2-3.4-.4-4-4.5-.8-5.8,8-3.4,18.9-11.1,10.5-20.4-6.4-7-14.4-12.2-23.9-8.1-1.9.9-3.7-2-2.5-3.5,0-.7,0-1.4.7-2.1,11.5-12.5-7.1-33.6-18.4-39.2-2.7-1.4-.9-5.6,1.9-4.9,6.4,1.4,38.8,2.6,32.5-9.7-1.3-2.5,1.2-5.8,4-4.2,5.8,3.5,12.7,4.9,19.5,4.1,8.2-1.1,7.3-6.8,6.2-13.3-.5-2.8,3-5.9,5.5-3.3,5.5,6.1,9.5,13.4,16.4,18,6.1,4.1,12.7,7.5,19.8,9.4,10.7,3,21.6,5.9,32.6,7.2-8.8-8.3-13.4-21.9-21.2-30.7-10.2-11.5-21.9-24.1-37.2-28.4-3.4-.9-2.6-5.7.8-5.9,6.7-.6,15-2.5,19.5-8,5.2-6.3,2-13.1-2.5-18.8-1.4-2,.5-4.6,2.6-4.7,1.8,0,3.5-.7,5-1.6,4.9-5.5,2.4-17.5,1.2-23.4-1.5-7.4-3.9-14.3-5.9-21.6-1.1-3.9,5-6.7,6.7-2.8.3.7.7,1.2.9,1.9,3.3,6.3,9.2,13.2,14.1,17.9,2.9,2.9,6.2,5.7,10.1,7.4,1.3.6,2.5.9,3.7,1.4.2-.3.5-.7.7-1,1-1.9,4.3-2.3,5.4,0,2.9,6.5,7.5,12.5,15.4,10.9,7.1-1.3,12.6-7.8,16.3-13.5,1.8-2.9,6.3-1.3,5.6,2.2-3.4,15.5,2.3,31.8,7.7,46.1,4.1,11,13.9,21.5,17.2,33.1,4.1-10.4,6.6-21.3,9-32.1,1.6-7.3,1.7-14.6.9-22-.9-8.3-5.4-15.3-8.2-23-1.2-3.4,3.1-5,5.5-3.2,5.3,4,9.8,7.5,14.6.8,4-5.7,5.9-12.4,5.7-19.1-.2-3.2,4-3.9,5.6-1.6,8,11.3,22.1-17.8,23.9-24.1.8-2.8,5.3-2.5,5.2.7-.3,12.6,9.6,38.9,26,34.6.8-.2,1.6,0,2.2.4,1.9-.4,3.6,2.5,1.9,3.9-7.9,6.4-7.2,15.9-4,24.8,4.2,11.8,16.1,5.8,22.9.3,2.6-2.1,6,.3,4.7,3.5-4.2,10.3-9.6,19.9-14.4,29.9-4.9,10.1-7.1,20.5-9.2,31.2h0c3.8-.5,7.5-1.8,10.9-3.1,7.1-2.7,13.7-6.5,20.4-9.8,2.1-1,4.3-.2,5.1,2,2.3,6.8,22.4-6.8,26.7-8.2,1.9-.7,3.5,1.7,2.5,3.3h0v-.4ZM269.1,419.9v-.2c.4-.6,0-1.5-.8-1.4h-.3c-.8,0-1.4.9-.9,1.7.5.8,1.5.7,2,0h0ZM322,495.3c1.6-.9,0-3.5-1.5-2.5-1.7.9-.2,3.5,1.5,2.5h0ZM317.6,397.5h-.3c-.8.4-1.2,1.1-.8,2,.5.8,1.4.8,2.1.2,0,0,.2,0,.3-.2.9-.8,0-2.5-1.3-2.1h0ZM330.4,363.1c-1.8,1.1,0,4,1.8,2.9s0-4.1-1.8-2.9h0ZM334.3,295.4c-1.1.6,0,2.3.9,1.6,1.1-.7,0-2.3-.9-1.6h0ZM442.6,363.4c-1.5.9,0,3.3,1.4,2.4,1.5-.8,0-3.3-1.4-2.4h0ZM469.4,390.1c-1.4.9-2.8-1.4-1.3-2.3,1.4-.9,2.8,1.4,1.3,2.3h0Z"/>
  <path class="cls-2" d="M433,539.4c4.8-3.5,9.7-7.4,7.5-13.6-4.9-14.7-25.1-68-35.1-69.1l-2,1.1c12.5,4.1,29.7,68.7,29.5,81.6h.1Z"/>
</svg>